<mxfile host="app.diagrams.net" modified="2024-05-30T03:06:08.932Z" agent="Mozilla/5.0 (Windows NT 10.0; Win64; x64) AppleWebKit/537.36 (KHTML, like Gecko) Chrome/125.0.0.0 Safari/537.36" etag="A6-X-6-ks5GFmwFtIYmk" version="24.4.9" type="github">
  <diagram name="第 1 页" id="s3n8gG0fuKqffe70A_rA">
    <mxGraphModel dx="1434" dy="1915" grid="1" gridSize="10" guides="1" tooltips="1" connect="1" arrows="1" fold="1" page="1" pageScale="1" pageWidth="827" pageHeight="1169" math="0" shadow="0">
      <root>
        <mxCell id="0" />
        <mxCell id="1" parent="0" />
        <mxCell id="pCqtwlNCeUda_szj-wWr-1" value="有监督学习、无监督学习、强化学习&lt;div&gt;&lt;br&gt;&lt;/div&gt;&lt;div&gt;机器学习、深度学习&lt;/div&gt;&lt;div&gt;&lt;br&gt;&lt;/div&gt;&lt;div&gt;算法、模型、参数&lt;/div&gt;" style="rounded=0;whiteSpace=wrap;html=1;strokeWidth=1;fontSize=18;verticalAlign=top;align=left;fontStyle=1" parent="1" vertex="1">
          <mxGeometry x="350" y="350" width="400" height="210" as="geometry" />
        </mxCell>
        <mxCell id="pCqtwlNCeUda_szj-wWr-2" value="单体----》微服务----》云原生&lt;div&gt;&lt;br&gt;&lt;/div&gt;&lt;div&gt;&lt;br&gt;&lt;/div&gt;&lt;div&gt;大数据---》人工智能&lt;/div&gt;" style="rounded=0;whiteSpace=wrap;html=1;strokeWidth=1;fontSize=18;verticalAlign=top;align=left;fontStyle=1" parent="1" vertex="1">
          <mxGeometry x="827" y="350" width="400" height="210" as="geometry" />
        </mxCell>
        <mxCell id="pCqtwlNCeUda_szj-wWr-3" value="AI教育&lt;div&gt;&lt;br&gt;&lt;/div&gt;&lt;div&gt;针对每个人单独的个性化AI。&lt;/div&gt;" style="rounded=0;whiteSpace=wrap;html=1;strokeWidth=1;fontSize=18;verticalAlign=top;align=left;fontStyle=1" parent="1" vertex="1">
          <mxGeometry x="390" y="60" width="400" height="210" as="geometry" />
        </mxCell>
        <mxCell id="UERRzto7p0Ywzh5H4U2g-1" value="&lt;div&gt;AI大概得3个方向：数据挖掘、计算机视觉、自然语言处理&lt;/div&gt;&lt;div&gt;&lt;br&gt;&lt;/div&gt;python基础有点印象就行，2天。&lt;div&gt;&lt;br&gt;&lt;/div&gt;&lt;div&gt;数学基础，知道公式是干嘛的就行，不要去推导。&lt;/div&gt;&lt;div&gt;python 和数学是现用现查。持续学习。&lt;/div&gt;&lt;div&gt;&lt;br&gt;&lt;/div&gt;&lt;div&gt;机器学习，现在很少用到了，里面很多算法都比较难，面试用的多，可以先不看：理解算法的流程，建模的思想。&lt;/div&gt;&lt;div&gt;数据挖掘也是面试前看一看&lt;/div&gt;&lt;div&gt;&lt;br&gt;&lt;/div&gt;&lt;div&gt;开始直接看深度学习即可。&lt;/div&gt;&lt;div&gt;&lt;span style=&quot;white-space: pre;&quot;&gt;&#x9;&lt;/span&gt;直播课：NN神经网络、CNN卷积神经网络、Transformer、VIT Debug。重要&lt;br&gt;&lt;/div&gt;&lt;div&gt;&lt;span style=&quot;white-space: pre;&quot;&gt;&#x9;&lt;/span&gt;PyTorch框架：1周了解。重要&lt;br&gt;&lt;/div&gt;&lt;div&gt;&lt;span style=&quot;white-space: pre;&quot;&gt;&#x9;&lt;/span&gt;OpenCV：视觉，了解就行，现用现查，调包，1周了解。不太重要。&lt;br&gt;&lt;/div&gt;&lt;div&gt;&lt;span style=&quot;white-space: pre;&quot;&gt;&#x9;&lt;/span&gt;综合项目：跟着视频走，1.算法思想原理。2.论文（看2遍，大概知道做什么的，带着问题去看源码）。&amp;nbsp; &amp;nbsp;3.源码（debugge）&amp;nbsp;&amp;nbsp;&lt;br&gt;&lt;/div&gt;&lt;div&gt;&lt;span style=&quot;white-space: pre;&quot;&gt;&#x9;&lt;/span&gt;&lt;span style=&quot;white-space: pre;&quot;&gt;&#x9;&lt;/span&gt;1.物体检测：都要用到、最简单容易上手，看源码，yolo v1-v5快速刷，理解流程，不用跑代码，1-9节，老黄历了。YOLO V7重点 19-20节，花1周时间看 算法 源码细节。&amp;nbsp; 13-16节 Detr相关 1周时间。&amp;nbsp; 半监督 21-22 1天时间。 10-12 17-18&amp;nbsp; 时间紧可以不看。&lt;br&gt;&lt;/div&gt;&lt;div&gt;&lt;span style=&quot;white-space: pre;&quot;&gt;&#x9;&lt;/span&gt;&lt;span style=&quot;white-space: pre;&quot;&gt;&#x9;&lt;/span&gt;2.图像分割：南分割，北检测。 1-12节快速过。Mask2former重点 1周。&lt;br&gt;&lt;/div&gt;&lt;div&gt;&lt;span style=&quot;white-space: pre;&quot;&gt;&#x9;&lt;/span&gt;&lt;span style=&quot;white-space: pre;&quot;&gt;&#x9;&lt;/span&gt;3.MMLAB：做实验，写论文用。实战不用。可以不看。&lt;br&gt;&lt;/div&gt;&lt;div&gt;&lt;span style=&quot;white-space: pre;&quot;&gt;&#x9;&lt;/span&gt;&lt;span style=&quot;white-space: pre;&quot;&gt;&#x9;&lt;/span&gt;4.&lt;span style=&quot;background-color: initial;&quot;&gt;经典视觉项目实战-行为识别、姿态估计、目标追踪：刷一遍视频。&lt;/span&gt;&lt;br&gt;&lt;/div&gt;&lt;div&gt;&lt;span style=&quot;background-color: initial;&quot;&gt;&lt;span style=&quot;white-space: pre;&quot;&gt;&#x9;&lt;/span&gt;&lt;span style=&quot;white-space: pre;&quot;&gt;&#x9;&lt;/span&gt;5.&lt;/span&gt;&lt;span style=&quot;background-color: initial;&quot;&gt;2022论⽂必备-Transformer实战系列：有时间过源码，没时间领悟思想。&lt;/span&gt;&lt;span style=&quot;background-color: initial;&quot;&gt;&lt;br&gt;&lt;/span&gt;&lt;/div&gt;&lt;div&gt;&lt;span style=&quot;background-color: initial;&quot;&gt;&lt;span style=&quot;white-space: pre;&quot;&gt;&#x9;&lt;/span&gt;&lt;span style=&quot;white-space: pre;&quot;&gt;&#x9;&lt;/span&gt;6.&lt;/span&gt;&lt;span style=&quot;background-color: initial;&quot;&gt;图神经网络实战：1周过一遍。&lt;/span&gt;&lt;span style=&quot;background-color: initial;&quot;&gt;&lt;br&gt;&lt;/span&gt;&lt;/div&gt;&lt;div&gt;&lt;span style=&quot;background-color: initial;&quot;&gt;&lt;span style=&quot;white-space: pre;&quot;&gt;&#x9;&lt;/span&gt;&lt;span style=&quot;white-space: pre;&quot;&gt;&#x9;&lt;/span&gt;7.自动驾驶：可以不看，只看&lt;/span&gt;&lt;span style=&quot;background-color: initial;&quot;&gt;NeuralRecon算法解读。&lt;/span&gt;&lt;span style=&quot;background-color: initial;&quot;&gt;&lt;br&gt;&lt;/span&gt;&lt;/div&gt;&lt;div&gt;&lt;span style=&quot;background-color: initial;&quot;&gt;&lt;span style=&quot;white-space: pre;&quot;&gt;&#x9;&lt;/span&gt;&lt;span style=&quot;white-space: pre;&quot;&gt;&#x9;&lt;/span&gt;8.&lt;/span&gt;&lt;span style=&quot;background-color: initial;&quot;&gt;对比学习与多模态任务实战：大模型相关，了解为主，自己实现困难，吃数据和算力。&lt;/span&gt;&lt;/div&gt;&lt;div&gt;&lt;span style=&quot;background-color: initial;&quot;&gt;&lt;span style=&quot;white-space: pre;&quot;&gt;&#x9;&lt;/span&gt;&lt;span style=&quot;white-space: pre;&quot;&gt;&#x9;&lt;/span&gt;9.&lt;/span&gt;&lt;span style=&quot;background-color: initial;&quot;&gt;强化学习与AI黑科技实例：了解。指导大模型相关训练。前沿。难在数学。&lt;/span&gt;&lt;span style=&quot;background-color: initial;&quot;&gt;&lt;br&gt;&lt;/span&gt;&lt;/div&gt;&lt;div&gt;&lt;span style=&quot;background-color: initial;&quot;&gt;&lt;span style=&quot;white-space: pre;&quot;&gt;&#x9;&lt;/span&gt;&lt;span style=&quot;white-space: pre;&quot;&gt;&#x9;&lt;/span&gt;10.&lt;/span&gt;&lt;span style=&quot;background-color: initial;&quot;&gt;CV与NLP经典大模型解读、&lt;/span&gt;&lt;span style=&quot;background-color: initial;&quot;&gt;2024Ai必会Agent(应用解读+项目实战)：过一遍吧。&lt;/span&gt;&lt;span style=&quot;background-color: initial;&quot;&gt;&lt;br&gt;&lt;/span&gt;&lt;/div&gt;&lt;div&gt;&lt;span style=&quot;background-color: initial;&quot;&gt;&lt;span style=&quot;white-space: pre;&quot;&gt;&#x9;&lt;/span&gt;&lt;span style=&quot;white-space: pre;&quot;&gt;&#x9;&lt;/span&gt;11.&lt;/span&gt;&lt;span style=&quot;background-color: initial;&quot;&gt;自然语言处理经典案例实战（过一遍）、&lt;/span&gt;&lt;span style=&quot;background-color: initial;&quot;&gt;自然语言处理必备神器Huggingface系列实战（重点）&lt;/span&gt;&lt;span style=&quot;background-color: initial;&quot;&gt;&lt;br&gt;&lt;/span&gt;&lt;/div&gt;&lt;div&gt;&lt;br&gt;&lt;/div&gt;" style="rounded=0;whiteSpace=wrap;html=1;strokeWidth=1;fontSize=18;verticalAlign=top;align=left;fontStyle=1" parent="1" vertex="1">
          <mxGeometry x="870" y="-520" width="1050" height="760" as="geometry" />
        </mxCell>
      </root>
    </mxGraphModel>
  </diagram>
</mxfile>
